<svg width="70" height="70" viewBox="0 0 70 70" fill="none" xmlns="http://www.w3.org/2000/svg">
<circle cx="35" cy="35" r="35" fill="#FDB100"/>
<path d="M33 50C33 51.1046 33.8954 52 35 52C36.1046 52 37 51.1046 37 50H33ZM36.4142 17.5858C35.6332 16.8047 34.3668 16.8047 33.5858 17.5858L20.8579 30.3137C20.0768 31.0948 20.0768 32.3611 20.8579 33.1421C21.6389 33.9232 22.9052 33.9232 23.6863 33.1421L35 21.8284L46.3137 33.1421C47.0948 33.9232 48.3611 33.9232 49.1421 33.1421C49.9232 32.3611 49.9232 31.0948 49.1421 30.3137L36.4142 17.5858ZM37 50L37 19H33L33 50H37Z" fill="white"/>
</svg>
